<?xml version="1.0" encoding="UTF-8" standalone="no"?>
<!-- Created with Inkscape (http://www.inkscape.org/) -->

<svg
   xmlns:dc="http://purl.org/dc/elements/1.1/"
   xmlns:cc="http://creativecommons.org/ns#"
   xmlns:rdf="http://www.w3.org/1999/02/22-rdf-syntax-ns#"
   xmlns:svg="http://www.w3.org/2000/svg"
   xmlns="http://www.w3.org/2000/svg"
   xmlns:sodipodi="http://sodipodi.sourceforge.net/DTD/sodipodi-0.dtd"
   xmlns:inkscape="http://www.inkscape.org/namespaces/inkscape"
   width="744.09448819"
   height="1052.3622047"
   id="svg2"
   version="1.1"
   inkscape:version="0.48.2 r9819"
   sodipodi:docname="circle_of_neurons.svg">
  <defs
     id="defs4" />
  <sodipodi:namedview
     id="base"
     pagecolor="#ffffff"
     bordercolor="#666666"
     borderopacity="1.0"
     inkscape:pageopacity="0.0"
     inkscape:pageshadow="2"
     inkscape:zoom="1.979899"
     inkscape:cx="-0.27863242"
     inkscape:cy="897.92178"
     inkscape:document-units="px"
     inkscape:current-layer="layer1"
     showgrid="false"
     inkscape:window-width="1217"
     inkscape:window-height="1002"
     inkscape:window-x="55"
     inkscape:window-y="-8"
     inkscape:window-maximized="1" />
  <metadata
     id="metadata7">
    <rdf:RDF>
      <cc:Work
         rdf:about="">
        <dc:format>image/svg+xml</dc:format>
        <dc:type
           rdf:resource="http://purl.org/dc/dcmitype/StillImage" />
      </cc:Work>
    </rdf:RDF>
  </metadata>
  <g
     inkscape:label="Layer 1"
     inkscape:groupmode="layer"
     id="layer1">
    <path
       sodipodi:type="arc"
       style="fill:none;stroke-width:3;stroke-miterlimit:4;stroke-dasharray:none"
       id="path2987"
       sodipodi:cx="220.21326"
       sodipodi:cy="209.89496"
       sodipodi:rx="307.27869"
       sodipodi:ry="189.90868"
       d="m 527.49194,209.89496 a 307.27869,189.90868 0 1 1 -614.55737,0 307.27869,189.90868 0 1 1 614.55737,0 z" />
    <path
       sodipodi:type="arc"
       style="fill:none;stroke-width:3;stroke-miterlimit:4;stroke-dasharray:none"
       id="path3759"
       sodipodi:cx="553.5636"
       sodipodi:cy="254.34167"
       sodipodi:rx="238.396"
       sodipodi:ry="133.34013"
       d="m 791.95959,254.34167 a 238.396,133.34013 0 1 1 -476.79199,0 238.396,133.34013 0 1 1 476.79199,0 z" />
    <path
       sodipodi:type="arc"
       style="fill:none;stroke:#000000;stroke-width:1.5;stroke-miterlimit:4;stroke-opacity:1;stroke-dasharray:none"
       id="path3767"
       sodipodi:cx="78.571426"
       sodipodi:cy="83.790756"
       sodipodi:rx="57.142857"
       sodipodi:ry="57.142857"
       d="M 135.71428,83.790756 A 57.142857,57.142857 0 1 1 117.96021,42.392333"
       transform="matrix(-0.91237892,-0.40934669,0.40934669,-0.91237892,120.24458,192.40263)"
       sodipodi:start="0"
       sodipodi:end="5.4729166"
       sodipodi:open="true" />
    <path
       sodipodi:type="arc"
       style="fill:#000000;fill-opacity:1;stroke:#000000;stroke-width:2;stroke-miterlimit:4;stroke-opacity:1;stroke-dasharray:none"
       id="path3773"
       sodipodi:cx="25"
       sodipodi:cy="67.005035"
       sodipodi:rx="1.4285715"
       sodipodi:ry="1.4285715"
       d="m 26.428571,67.005035 a 1.4285715,1.4285715 0 1 1 -2.857142,0 1.4285715,1.4285715 0 1 1 2.857142,0 z"
       transform="translate(2.7142857,1.7857142)" />
    <path
       transform="translate(0.71428564,16.142857)"
       d="m 26.428571,67.005035 a 1.4285715,1.4285715 0 1 1 -2.857142,0 1.4285715,1.4285715 0 1 1 2.857142,0 z"
       sodipodi:ry="1.4285715"
       sodipodi:rx="1.4285715"
       sodipodi:cy="67.005035"
       sodipodi:cx="25"
       id="path3779"
       style="fill:#000000;fill-opacity:1;stroke:#000000;stroke-width:2;stroke-miterlimit:4;stroke-opacity:1;stroke-dasharray:none"
       sodipodi:type="arc" />
    <path
       sodipodi:type="arc"
       style="fill:#000000;fill-opacity:1;stroke:#000000;stroke-width:2;stroke-miterlimit:4;stroke-opacity:1;stroke-dasharray:none"
       id="path3781"
       sodipodi:cx="25"
       sodipodi:cy="67.005035"
       sodipodi:rx="1.4285715"
       sodipodi:ry="1.4285715"
       d="m 26.428571,67.005035 a 1.4285715,1.4285715 0 1 1 -2.857142,0 1.4285715,1.4285715 0 1 1 2.857142,0 z"
       transform="translate(2,29.785714)" />
    <g
       id="g3811"
       transform="translate(2,0)">
      <path
         transform="translate(-4,-2)"
         d="m 127.14286,134.14789 c 0,7.69254 -6.23604,13.92857 -13.92857,13.92857 -7.69254,0 -13.928575,-6.23603 -13.928575,-13.92857 0,-7.69254 6.236035,-13.92857 13.928575,-13.92857 7.69253,0 13.92857,6.23603 13.92857,13.92857 z"
         sodipodi:ry="13.928572"
         sodipodi:rx="13.928572"
         sodipodi:cy="134.14789"
         sodipodi:cx="113.21429"
         id="path3769"
         style="fill:#ffffff;fill-opacity:1;stroke:#000000;stroke-width:3;stroke-miterlimit:4;stroke-opacity:1;stroke-dasharray:none"
         sodipodi:type="arc" />
      <text
         sodipodi:linespacing="125%"
         id="text3783"
         y="139.71933"
         x="103.92857"
         style="font-size:20px;font-style:normal;font-variant:normal;font-weight:normal;font-stretch:normal;line-height:125%;letter-spacing:0px;word-spacing:0px;fill:#000000;fill-opacity:1;stroke:none;font-family:Andalus;-inkscape-font-specification:Andalus"
         xml:space="preserve"><tspan
           y="139.71933"
           x="103.92857"
           id="tspan3785"
           sodipodi:role="line">3</tspan></text>
    </g>
    <path
       transform="translate(24,-50)"
       d="m 127.14286,134.14789 a 13.928572,13.928572 0 1 1 -27.857145,0 13.928572,13.928572 0 1 1 27.857145,0 z"
       sodipodi:ry="13.928572"
       sodipodi:rx="13.928572"
       sodipodi:cy="134.14789"
       sodipodi:cx="113.21429"
       id="path3787"
       style="fill:#ffffff;fill-opacity:1;stroke:#000000;stroke-width:3;stroke-miterlimit:4;stroke-opacity:1;stroke-dasharray:none"
       sodipodi:type="arc" />
    <text
       sodipodi:linespacing="125%"
       id="text3789"
       y="91.71933"
       x="131.92857"
       style="font-size:20px;font-style:normal;font-variant:normal;font-weight:normal;font-stretch:normal;line-height:125%;letter-spacing:0px;word-spacing:0px;fill:#000000;fill-opacity:1;stroke:none;font-family:Andalus;-inkscape-font-specification:Andalus"
       xml:space="preserve"><tspan
         y="91.71933"
         x="131.92857"
         id="tspan3791"
         sodipodi:role="line">2</tspan></text>
    <path
       sodipodi:type="arc"
       style="fill:#ffffff;fill-opacity:1;stroke:#000000;stroke-width:3;stroke-miterlimit:4;stroke-opacity:1;stroke-dasharray:none"
       id="path3793"
       sodipodi:cx="113.21429"
       sodipodi:cy="134.14789"
       sodipodi:rx="13.928572"
       sodipodi:ry="13.928572"
       d="m 127.14286,134.14789 a 13.928572,13.928572 0 1 1 -27.857145,0 13.928572,13.928572 0 1 1 27.857145,0 z"
       transform="translate(-2,-100)" />
    <text
       xml:space="preserve"
       style="font-size:20px;font-style:normal;font-variant:normal;font-weight:normal;font-stretch:normal;line-height:125%;letter-spacing:0px;word-spacing:0px;fill:#000000;fill-opacity:1;stroke:none;font-family:Andalus;-inkscape-font-specification:Andalus"
       x="105.92857"
       y="41.71933"
       id="text3795"
       sodipodi:linespacing="125%"><tspan
         sodipodi:role="line"
         id="tspan3797"
         x="105.92857"
         y="41.71933">1</tspan></text>
    <g
       id="g3821"
       transform="translate(-2,0)">
      <path
         sodipodi:type="arc"
         style="fill:#ffffff;fill-opacity:1;stroke:#000000;stroke-width:3;stroke-miterlimit:4;stroke-opacity:1;stroke-dasharray:none"
         id="path3799"
         sodipodi:cx="113.21429"
         sodipodi:cy="134.14789"
         sodipodi:rx="13.928572"
         sodipodi:ry="13.928572"
         d="m 127.14286,134.14789 c 0,7.69254 -6.23604,13.92857 -13.92857,13.92857 -7.69254,0 -13.928575,-6.23603 -13.928575,-13.92857 0,-7.69254 6.236035,-13.92857 13.928575,-13.92857 7.69253,0 13.92857,6.23603 13.92857,13.92857 z"
         transform="translate(-58,-100)" />
      <text
         xml:space="preserve"
         style="font-size:20px;font-style:normal;font-variant:normal;font-weight:normal;font-stretch:normal;line-height:125%;letter-spacing:0px;word-spacing:0px;fill:#000000;fill-opacity:1;stroke:none;font-family:Andalus;-inkscape-font-specification:Andalus"
         x="49.928574"
         y="39.71933"
         id="text3801"
         sodipodi:linespacing="125%"><tspan
           sodipodi:role="line"
           id="tspan3803"
           x="49.928574"
           y="39.71933">n</tspan></text>
    </g>
    <g
       id="g3816"
       transform="translate(-2,0)">
      <path
         transform="translate(-58,-2)"
         d="m 127.14286,134.14789 c 0,7.69254 -6.23604,13.92857 -13.92857,13.92857 -7.69254,0 -13.928575,-6.23603 -13.928575,-13.92857 0,-7.69254 6.236035,-13.92857 13.928575,-13.92857 7.69253,0 13.92857,6.23603 13.92857,13.92857 z"
         sodipodi:ry="13.928572"
         sodipodi:rx="13.928572"
         sodipodi:cy="134.14789"
         sodipodi:cx="113.21429"
         id="path3805"
         style="fill:#ffffff;fill-opacity:1;stroke:#000000;stroke-width:3;stroke-miterlimit:4;stroke-opacity:1;stroke-dasharray:none"
         sodipodi:type="arc" />
      <text
         sodipodi:linespacing="125%"
         id="text3807"
         y="139.71933"
         x="49.928574"
         style="font-size:20px;font-style:normal;font-variant:normal;font-weight:normal;font-stretch:normal;line-height:125%;letter-spacing:0px;word-spacing:0px;fill:#000000;fill-opacity:1;stroke:none;font-family:Andalus;-inkscape-font-specification:Andalus"
         xml:space="preserve"><tspan
           y="139.71933"
           x="49.928574"
           id="tspan3809"
           sodipodi:role="line">4</tspan></text>
    </g>
  </g>
</svg>
